<?xml version="1.0" encoding="UTF-8" standalone="no"?><!DOCTYPE svg PUBLIC "-//W3C//DTD SVG 1.1//EN" "http://www.w3.org/Graphics/SVG/1.1/DTD/svg11.dtd"><svg width="100%" height="100%" viewBox="0 0 1250 1250" version="1.1" xmlns="http://www.w3.org/2000/svg" xmlns:xlink="http://www.w3.org/1999/xlink" xml:space="preserve" xmlns:serif="http://www.serif.com/" style="fill-rule:evenodd;clip-rule:evenodd;stroke-linejoin:round;stroke-miterlimit:2;"><path d="M625,104.09c287.498,-0 520.91,233.412 520.91,520.91c0,287.498 -233.412,520.91 -520.91,520.91c-287.498,0 -520.91,-233.412 -520.91,-520.91c-0,-287.498 233.412,-520.91 520.91,-520.91Zm-0,237.067c156.657,0 283.843,127.186 283.843,283.843c-0,156.657 -127.186,283.843 -283.843,283.843c-156.657,-0 -283.843,-127.186 -283.843,-283.843c0,-156.657 127.186,-283.843 283.843,-283.843Z" style="fill:#006a4e;"/><g><path d="M625,104.09l-0,237.067c-156.657,0 -283.843,127.186 -283.843,283.843c0,6.595 0.226,13.138 0.671,19.637l-237.373,-0c-0.243,-6.498 -0.365,-13.053 -0.365,-19.637c-0,-287.498 233.412,-520.91 520.91,-520.91Z" style="fill:#fd5453;"/><rect x="104.09" y="104.09" width="237.21" height="540.547" style="fill:#fd5453;"/></g></svg>